<?xml version="1.0" encoding="iso-8859-1"?>
<!-- Generator: Adobe Illustrator 17.1.0, SVG Export Plug-In . SVG Version: 6.00 Build 0)  -->
<!DOCTYPE svg PUBLIC "-//W3C//DTD SVG 1.1//EN" "http://www.w3.org/Graphics/SVG/1.1/DTD/svg11.dtd">
<svg version="1.1" id="Capa_1" xmlns="http://www.w3.org/2000/svg" xmlns:xlink="http://www.w3.org/1999/xlink" x="0px" y="0px"
	 viewBox="0 0 374.417 374.417" style="enable-background:new 0 0 374.417 374.417;" xml:space="preserve">
<path d="M343.493,139.998c0,67.389-64.077,122.211-142.838,122.211h-13.447h-13.447c-67.733,0-122.838,45.85-122.838,102.207
	c0,5.523-4.477,10.001-10,10.001s-10-4.476-10-9.999c0-67.388,64.077-122.209,142.838-122.209h13.447h13.447
	c67.733,0,122.838-45.851,122.838-102.208c0-5.523,4.477-10.001,10-10.001S343.493,134.475,343.493,139.998z M40.924,244.416
	c5.523,0,10-4.477,10-10c0-56.357,55.105-102.208,122.838-102.208h13.447h13.447c78.761,0,142.838-54.823,142.838-122.208
	c0-5.523-4.477-10-10-10s-10,4.477-10,10c0,56.358-55.105,102.208-122.838,102.208h-13.447h-13.447
	c-78.761,0-142.838,54.822-142.838,122.208C30.924,239.939,35.401,244.416,40.924,244.416z M177.209,156.467v61.481
	c0,5.523,4.477,10,10,10s10-4.477,10-10v-61.481c0-5.523-4.477-10-10-10S177.209,150.944,177.209,156.467z M273.147,140.609v26.402
	c0,5.523,4.477,10,10,10s10-4.477,10-10v-26.402c0-5.523-4.477-10-10-10S273.147,135.086,273.147,140.609z M225.177,156.779v45.295
	c0,5.523,4.477,10,10,10s10-4.477,10-10v-45.295c0-5.523-4.477-10-10-10S225.177,151.256,225.177,156.779z M81.271,207.405v26.401
	c0,5.523,4.477,10,10,10s10-4.477,10-10v-26.401c0-5.523-4.477-10-10-10S81.271,201.882,81.271,207.405z M129.241,172.342v45.295
	c0,5.523,4.477,10,10,10s10-4.477,10-10v-45.295c0-5.523-4.477-10-10-10S129.241,166.819,129.241,172.342z M40.924,282.833
	c5.523,0,10-4.477,10-10v-5.743c0-5.523-4.477-10-10-10s-10,4.477-10,10v5.743C30.924,278.356,35.401,282.833,40.924,282.833z
	 M322.275,99.076v5.742c0,5.523,4.477,10,10,10s10-4.477,10-10v-5.742c0-5.523-4.477-10-10-10S322.275,93.553,322.275,99.076z"/>
<g>
</g>
<g>
</g>
<g>
</g>
<g>
</g>
<g>
</g>
<g>
</g>
<g>
</g>
<g>
</g>
<g>
</g>
<g>
</g>
<g>
</g>
<g>
</g>
<g>
</g>
<g>
</g>
<g>
</g>
</svg>
